<?xml version="1.0" encoding="UTF-8" standalone="no"?>
<!-- Created with Inkscape (http://www.inkscape.org/) -->

<svg
   xmlns:dc="http://purl.org/dc/elements/1.1/"
   xmlns:cc="http://creativecommons.org/ns#"
   xmlns:rdf="http://www.w3.org/1999/02/22-rdf-syntax-ns#"
   xmlns:svg="http://www.w3.org/2000/svg"
   xmlns="http://www.w3.org/2000/svg"
   xmlns:sodipodi="http://sodipodi.sourceforge.net/DTD/sodipodi-0.dtd"
   xmlns:inkscape="http://www.inkscape.org/namespaces/inkscape"
   width="512"
   height="512"
   id="svg2"
   version="1.1"
   inkscape:version="0.48.4 r9939"
   sodipodi:docname="logoPodcatcher.svg"
   inkscape:export-filename="..\sources\webapp\img\logo192.png"
   inkscape:export-xdpi="33.75"
   inkscape:export-ydpi="33.75">
  <title
     id="title5318">HTML5 Podcatcher</title>
  <defs
     id="defs4" />
  <sodipodi:namedview
     id="base"
     pagecolor="#ffffff"
     bordercolor="#666666"
     borderopacity="1.0"
     inkscape:pageopacity="0"
     inkscape:pageshadow="2"
     inkscape:zoom="0.98994949"
     inkscape:cx="54.789021"
     inkscape:cy="195.09646"
     inkscape:document-units="px"
     inkscape:current-layer="layer1"
     showgrid="false"
     inkscape:window-width="1680"
     inkscape:window-height="987"
     inkscape:window-x="-8"
     inkscape:window-y="-8"
     inkscape:window-maximized="1">
    <inkscape:grid
       type="xygrid"
       id="grid2987"
       empspacing="5"
       visible="true"
       enabled="true"
       snapvisiblegridlinesonly="true" />
  </sodipodi:namedview>
  <metadata
     id="metadata7">
    <rdf:RDF>
      <cc:Work
         rdf:about="">
        <dc:format>image/svg+xml</dc:format>
        <dc:type
           rdf:resource="http://purl.org/dc/dcmitype/StillImage" />
        <dc:title>HTML5 Podcatcher</dc:title>
        <dc:creator>
          <cc:Agent>
            <dc:title>Sebastian Spautz</dc:title>
          </cc:Agent>
        </dc:creator>
        <dc:rights>
          <cc:Agent>
            <dc:title />
          </cc:Agent>
        </dc:rights>
        <dc:description>Logo für den HTML5 Podcatcher</dc:description>
        <cc:license
           rdf:resource="http://creativecommons.org/licenses/by-sa/3.0/" />
      </cc:Work>
      <cc:License
         rdf:about="http://creativecommons.org/licenses/by-sa/3.0/">
        <cc:permits
           rdf:resource="http://creativecommons.org/ns#Reproduction" />
        <cc:permits
           rdf:resource="http://creativecommons.org/ns#Distribution" />
        <cc:requires
           rdf:resource="http://creativecommons.org/ns#Notice" />
        <cc:requires
           rdf:resource="http://creativecommons.org/ns#Attribution" />
        <cc:permits
           rdf:resource="http://creativecommons.org/ns#DerivativeWorks" />
        <cc:requires
           rdf:resource="http://creativecommons.org/ns#ShareAlike" />
      </cc:License>
    </rdf:RDF>
  </metadata>
  <g
     inkscape:label="Layer 1"
     inkscape:groupmode="layer"
     id="layer1"
     transform="translate(0,-540.36218)">
    <path
       style="fill:#000000;stroke-width:6;stroke-linecap:round;stroke-miterlimit:4;stroke-dasharray:none"
       d=""
       id="path3768"
       inkscape:connector-curvature="0"
       transform="translate(0,540.36218)" />
    <path
       style="fill:#000000;fill-opacity:1;stroke:#000000;stroke-width:0.71428573;stroke-linecap:round;stroke-miterlimit:4;stroke-opacity:1;stroke-dasharray:none"
       d=""
       id="path3800"
       inkscape:connector-curvature="0"
       transform="translate(0,540.36218)" />
    <path
       style="fill:#000000;fill-opacity:1;fill-rule:nonzero;stroke:none"
       d=""
       id="path5274"
       inkscape:connector-curvature="0"
       transform="translate(0,540.36218)" />
    <path
       style="fill:#000000;fill-opacity:1;fill-rule:nonzero;stroke:none"
       d=""
       id="path5278"
       inkscape:connector-curvature="0"
       transform="translate(0,540.36218)" />
    <path
       sodipodi:type="arc"
       style="fill:#ffffff;fill-opacity:1;fill-rule:nonzero;stroke:#004600;stroke-width:24;stroke-linecap:round;stroke-linejoin:round;stroke-miterlimit:4;stroke-opacity:1;stroke-dasharray:none"
       id="GreenCircle"
       sodipodi:cx="250"
       sodipodi:cy="262"
       sodipodi:rx="200"
       sodipodi:ry="200"
       d="M 450,262 C 450,372.45695 360.45695,462 250,462 139.54305,462 50,372.45695 50,262 50,151.54305 139.54305,62 250,62 c 110.45695,0 200,89.54305 200,200 z"
       transform="matrix(1.167861,0.16247479,-0.16247479,1.167861,6.6031434,449.7639)"
       inkscape:label="#greencircle" />
    <path
       sodipodi:type="arc"
       style="fill:#004600;fill-opacity:1;fill-rule:nonzero;stroke:none"
       id="path2985"
       sodipodi:cx="221.78572"
       sodipodi:cy="285.21429"
       sodipodi:rx="86.785713"
       sodipodi:ry="74.64286"
       d="m 308.57143,285.21429 c 0,41.22412 -38.85528,74.64286 -86.78571,74.64286 -47.93043,0 -86.78571,-33.41874 -86.78571,-74.64286 0,-41.22411 38.85528,-74.64286 86.78571,-74.64286 47.93043,0 86.78571,33.41875 86.78571,74.64286 z"
       transform="matrix(0.56171932,-0.09904627,0.09854202,0.55885955,24.669446,741.10621)" />
    <path
       style="fill:#004600;fill-opacity:1;fill-rule:nonzero;stroke:none"
       id="path3792"
       d="m 215.78056,901.11181 c 0.72252,-1.80251 1.52449,-3.54532 2.31119,-5.30009 0.71745,-1.73455 1.47632,-3.43745 2.13522,-5.21273 0.36577,-1.12917 0.90163,-2.13446 1.36242,-3.19491 0.3345,-0.81943 0.6655,-1.64096 1,-2.46048 0.50673,-1.22954 0.84283,-2.56358 1.24485,-3.85639 0.59764,-1.81733 1.16309,-3.65349 1.70323,-5.50334 0.53154,-1.92035 0.99692,-3.87387 1.48079,-5.81772 0.38794,-1.72557 0.88653,-3.39659 1.3742,-5.07199 0.49342,-1.68474 0.95705,-3.38704 1.3803,-5.10736 0.44253,-1.98591 0.82289,-3.99808 1.21897,-6.00322 0.47457,-2.03473 1.01872,-4.03616 1.50354,-6.06636 0.46291,-1.75849 0.73477,-3.59755 1.10535,-5.39547 0.33837,-1.58535 0.63548,-3.18826 0.9315,-4.79068 0.32955,-1.63569 0.7407,-3.23344 1.02368,-4.88792 0.30243,-2.01689 0.56542,-4.04547 0.89049,-6.05498 0.36254,-2.09685 0.68811,-4.20597 1.11077,-6.28002 0.40296,-1.79339 0.68662,-3.63422 0.92389,-5.48703 0.26112,-2.06157 0.57275,-4.10733 0.85195,-6.16325 0.32678,-2.52275 0.67445,-5.03769 1.08624,-7.53291 0.37865,-2.53282 0.77707,-5.06132 1.07652,-7.61867 0.2058,-2.00356 0.44113,-3.99948 0.64521,-6.00333 0.14777,-1.88572 0.30316,-3.76817 0.47428,-5.64873 0.16549,-2.11007 0.47581,-4.1817 0.68196,-6.28099 0.19478,-2.17594 0.44407,-4.3372 0.56841,-6.52893 0.0786,-1.83714 0.17704,-3.67072 0.26658,-5.50592 0.10444,-1.48497 0.1257,-2.98372 0.21056,-4.47229 0.10264,-1.46761 0.16682,-2.94137 0.19571,-4.42138 0.0345,-1.64728 0.12162,-3.28622 0.18261,-4.92933 0.0754,-1.82656 0.12107,-3.65787 0.16528,-5.48913 0.0909,-1.63338 0.0624,-3.28336 0.13221,-4.91977 0.08,-1.45912 0.0748,-2.93099 0.0875,-4.39934 -0.0391,-1.51207 0.0425,-3.00554 0.0916,-4.50608 0.0736,-1.59107 0.0261,-3.19665 0.0668,-4.79222 0.0313,-1.35885 0.0618,-2.71767 0.11099,-4.07403 0.10057,-1.01414 0.0419,-2.04985 0.10198,-3.06985 0.0717,-1.18736 0.0932,-2.38381 0.1257,-3.5778 -0.0201,-1.00036 -0.0339,-1.99883 -0.003,-2.99411 0.0356,-0.96386 0.14449,-1.91311 0.17241,-2.87785 -0.0346,-0.84082 0.0509,-1.66361 0.0308,-2.50263 0.018,-0.88499 -0.0215,-1.7799 0.0355,-2.65893 0.0513,-0.84148 0.0378,-1.69295 0.0529,-2.54039 -0.0146,-0.94222 0.0442,-1.87246 0.007,-2.81664 -0.11072,-0.86118 -0.10965,-1.71395 -0.11969,-2.57236 -0.0594,-0.78586 0.0271,-1.5533 0.01,-2.33561 -0.0898,-0.88565 -0.0532,-1.74882 0.0951,-2.5946 0.13981,-0.78124 0.53438,-1.34385 0.92321,-1.93 0.45026,-0.58811 0.92228,-1.14899 1.39318,-1.71145 0.30332,-0.28627 0.55366,-0.64919 0.84488,-0.95163 14.38004,-14.93333 -9.41623,9.79476 4.88667,-5.0516 0.61622,-0.3418 1.15552,-0.79805 1.69874,-1.27537 0.56846,-0.41358 1.11776,-0.84693 1.66622,-1.29477 0.64091,-0.45078 1.2406,-0.98573 1.89918,-1.3999 0.10689,-0.0527 0.22,-0.0906 0.32067,-0.15798 0.2003,-0.18059 0.27994,-0.26608 0.49975,-0.41018 0.27946,-0.18323 0.57161,-0.29 0.84589,-0.48723 0.66164,-0.36712 1.27874,-0.81466 1.9668,-1.1179 0.5502,-0.44194 1.16246,-0.74486 1.75354,-1.09854 0.66106,-0.22968 1.2458,-0.62255 1.87173,-0.94286 0.61144,-0.18062 1.11288,-0.60839 1.70402,-0.85321 0.59531,-0.48939 1.31683,-0.65418 1.9737,-0.98525 0.78988,-0.35571 1.59491,-0.63184 2.37251,-1.02021 0.77122,-0.33851 1.52102,-0.51666 2.2794,-0.90407 0.7174,-0.39423 1.53022,-0.44514 2.26431,-0.77644 0.75945,-0.3784 1.56302,-0.60047 2.37437,-0.78969 0.76874,-0.35927 1.55708,-0.65122 2.36528,-0.87565 0.76183,-0.0955 1.44738,-0.41601 2.15679,-0.70663 0.7081,-0.27846 1.44696,-0.4398 2.18565,-0.5902 0.68066,-0.34786 1.39108,-0.59976 2.11597,-0.8001 0.72706,-0.18659 1.46572,-0.31734 2.20346,-0.44966 0.75911,-0.0381 1.43074,-0.35321 2.12887,-0.63634 0.778,-0.30258 1.59411,-0.46011 2.40454,-0.62564 0.89436,-0.16481 1.78879,-0.32932 2.68537,-0.48163 0.93972,-0.16265 1.87877,-0.32924 2.81849,-0.49189 0.89034,-0.15655 1.77983,-0.3179 2.66973,-0.47684 0.75726,-0.21344 1.54796,-0.082 2.32917,-0.0818 0.80698,0.006 1.58639,-0.20722 2.39274,-0.18495 0.82098,0.0547 1.63513,0.0154 2.44389,-0.0737 0.81961,-0.18839 1.65455,-0.15067 2.49523,-0.14165 0.89568,-0.0378 1.77255,-0.13338 2.67402,-0.0851 0.79989,0.0907 1.57915,-0.10923 2.3745,-0.0376 0.75446,0.14012 1.49791,-0.046 2.24711,0.0707 0.65682,0.18043 1.30768,0.0136 1.96004,0.13682 0.65965,0.10342 1.31065,0.12261 1.97047,0.21896 0.7572,0.12651 1.50214,0.28745 2.26214,0.29182 0.65754,0.14361 1.30473,0.21362 1.95757,0.39149 0.67018,0.11576 1.34582,0.20559 2.01171,0.38875 0.79464,0.11588 1.5723,0.37572 2.35523,0.61008 0.81255,0.19043 1.62284,0.44505 2.41622,0.77111 0.81203,0.27433 1.59783,0.67997 2.41826,0.89955 0.71803,0.27434 1.41732,0.63201 2.13392,0.91182 0.69902,0.34822 1.42479,0.60446 2.11484,0.981 0.64561,0.34748 1.32025,0.59166 1.95841,0.96209 0.6136,0.22895 1.18436,0.58234 1.76626,0.92329 0.61752,0.43974 1.26405,0.80379 1.86121,1.29054 0.5366,0.30012 1.05206,0.65672 1.58016,0.98294 0.48241,0.35734 0.92193,0.80056 1.39892,1.16751 0.44918,0.39635 0.87891,0.83629 1.34509,1.19984 0.44787,0.39784 0.8783,0.83628 1.34451,1.19892 0.44832,0.39734 0.87892,0.83574 1.3453,1.19838 0.44838,0.39729 0.87898,0.8357 1.34537,1.19837 0.52535,0.4538 1.00892,0.97799 1.50716,1.48087 0.64394,0.51176 1.20745,1.15954 1.82237,1.72733 0.59183,0.46832 1.21012,0.88604 1.7791,1.40043 0.58961,0.43991 1.20923,0.82048 1.83768,1.15279 0.60758,0.38595 1.23742,0.77897 1.89174,0.9886 0.69557,0.32362 1.41472,0.4949 2.12377,0.7348 0.76012,0.21759 1.52717,0.23233 2.29297,0.34016 0.75024,0.0967 1.49111,0.0174 2.22531,-0.0807 0.82013,0.10139 1.63156,0.076 2.44055,0.003 0.98892,-0.10664 1.96721,-0.28341 2.94652,-0.4506 0.95737,-0.17186 1.91525,-0.34076 2.87261,-0.51261 0.81362,-0.14753 1.62758,-0.29308 2.44172,-0.43765 0.83715,-0.14051 1.67241,-0.29185 2.50818,-0.44023 0.75534,-0.13522 1.51102,-0.26847 2.2667,-0.40171 0.68264,-0.33574 1.38975,-0.59007 2.11235,-0.79116 0.69217,-0.24163 1.46404,-0.19143 2.12244,-0.53689 0.58689,-0.34106 1.22732,-0.51874 1.86893,-0.67557 0.54668,-0.38485 1.15425,-0.59743 1.77284,-0.77033 0.0496,-0.16454 0.3153,-0.007 0.3934,-0.14379 0.0174,-0.0304 -0.0206,-0.1344 -0.042,-0.10795 -1.30302,1.63537 -2.52572,3.36948 -3.84424,4.9854 -0.0602,0.0738 -0.17578,0.013 -0.25842,0.0425 -0.0902,0.0324 -0.17007,0.0943 -0.2551,0.14145 -0.82442,0.26985 -1.59806,0.67673 -2.40152,1.01169 -0.82499,0.44273 -1.61641,0.95888 -2.45636,1.3618 -0.74893,0.48999 -1.54233,0.86268 -2.31185,1.30227 -0.67052,0.48298 -1.33404,0.99013 -2.04251,1.39273 -0.31371,0.40857 -0.76398,0.54533 -1.14944,0.80609 -0.16986,0.11494 -0.31459,0.27739 -0.47986,0.40149 -0.49959,0.35939 -0.96313,0.7938 -1.46936,1.15608 -0.56463,0.37667 -1.08589,0.84422 -1.64602,1.24029 0.86791,-0.84234 -2.08783,1.96504 -1.22138,1.05475 1.25246,-1.31582 5.01262,-5.25794 3.78905,-3.90136 -1.39821,1.55021 -2.87551,2.98836 -4.31326,4.48256 -0.0957,0.0736 -0.37259,0.31111 -0.28697,0.22099 1.26765,-1.33437 5.07719,-5.32695 3.83534,-3.9561 -1.49722,1.65278 -3.22108,3.712 -5.07985,5.07579 -0.56385,0.50202 -1.16717,0.90169 -1.69424,1.46637 -0.61047,0.42482 -1.15788,0.9375 -1.71193,1.45607 9.79986,-10.1514 -0.12405,0.13064 -0.52698,0.53853 -0.0904,0.0915 -0.21086,0.13039 -0.30577,0.21489 -0.25235,0.22452 -0.50022,0.50554 -0.73079,0.76421 -0.6126,0.46427 -1.19827,0.978 -1.80905,1.44671 -0.65492,0.56455 -1.27981,1.18016 -1.94266,1.73131 -0.60775,0.65551 -1.31339,1.13991 -1.9779,1.69719 -0.66126,0.51987 -1.32664,1.02797 -2.0125,1.50163 -0.75935,0.56434 -1.4953,1.19158 -2.27878,1.7104 -0.82847,0.68082 -1.73121,1.21442 -2.66718,1.65389 -1.04937,0.61493 -2.14867,1.10487 -3.21723,1.67321 -1.20508,0.67875 -2.48547,1.13577 -3.73261,1.69367 -1.30054,0.50699 -2.57866,1.0747 -3.89893,1.51618 -1.25685,0.3523 -2.52467,0.62068 -3.76433,1.03964 -1.17141,0.3838 -2.36557,0.67555 -3.56842,0.921 -1.25495,0.24433 -2.51487,0.46131 -3.7733,0.68645 -1.2322,0.21704 -2.46519,0.42961 -3.69683,0.64982 -1.12011,0.19649 -2.23968,0.39594 -3.35839,0.6003 -0.92139,0.17059 -1.84549,0.32577 -2.76833,0.48814 -0.87472,0.19141 -1.73774,0.3321 -2.63925,0.29175 -0.77324,-0.0824 -1.52671,0.10772 -2.29603,0.0344 -0.76518,-0.13176 -1.51751,0.0247 -2.27831,-0.0634 -0.75357,-0.15522 -1.49693,0.0295 -2.24518,-0.0876 -0.67641,-0.0955 -1.34319,-0.11521 -2.01929,-0.21355 -0.74517,-0.12691 -1.47072,0.0601 -2.2107,-0.0107 -0.84809,-0.0499 -1.69135,-0.21546 -2.53976,-0.24878 -0.82277,-0.22416 -1.64836,-0.13412 -2.46989,-0.25903 -0.77682,-0.0458 -1.54872,-0.18934 -2.32516,-0.27132 -0.86809,-0.0582 -1.73566,-0.18792 -2.60241,-0.33901 -0.9322,-0.0847 -1.84982,-0.40092 -2.77917,-0.53212 -0.92845,-0.17072 -1.84059,-0.48527 -2.77221,-0.59327 -0.80189,-0.14847 -1.60017,-0.35767 -2.4034,-0.4777 -0.67611,-0.25532 -1.36657,-0.36566 -2.05402,-0.51204 -0.76362,-0.13102 -1.52369,-0.32429 -2.28482,-0.50109 -0.67636,-0.21209 -1.38387,-0.28442 -2.05569,-0.52124 -0.59348,-0.11046 -1.17595,-0.30733 -1.76947,-0.41756 -0.69802,-0.21499 -1.40328,-0.41759 -2.11109,-0.53611 -0.64675,-0.25279 -1.30258,-0.35577 -1.95565,-0.55095 -0.65509,-0.15492 -1.30283,-0.34627 -1.95022,-0.56425 -0.61216,-0.18454 -1.21402,-0.44219 -1.82901,-0.62884 -0.68371,-0.15274 -1.35872,-0.45699 -2.01598,-0.77201 -0.77626,-0.33453 -1.56028,-0.63515 -2.33319,-0.98557 -0.70769,-0.28306 -1.44354,-0.44585 -2.1402,-0.77725 -0.63011,-0.19358 -1.24101,-0.45217 -1.85587,-0.72485 -0.67939,-0.25769 -1.36546,-0.45692 -2.05631,-0.63711 -0.69829,-0.1446 -1.38649,-0.40239 -2.08087,-0.59867 -0.67124,-0.15578 -1.33246,-0.41198 -2.00152,-0.60434 -0.7323,-0.11007 -1.45688,-0.28889 -2.19121,-0.32734 -0.67869,-0.0654 -1.38043,-0.11708 -2.05812,-0.27814 -0.71576,-0.21534 -1.42793,-0.0423 -2.14034,-0.1624 -0.65711,-0.14554 -1.30984,-0.10499 -1.95687,-0.037 -0.65252,0.0583 -1.31455,-0.0866 -1.97491,-0.069 -0.70494,0.0398 -1.39975,0.15929 -2.0936,0.27615 -0.73254,0.12612 -1.46404,0.25818 -2.1959,0.38821 -0.48929,0.0869 -0.24464,0.0435 -0.73392,0.13027 0,0 3.67967,-4.81473 3.67967,-4.81473 l 0,0 c 0.48915,-0.0869 0.24457,-0.0434 0.73377,-0.1304 0.73333,-0.13032 1.46634,-0.26262 2.20139,-0.38309 0.71179,-0.11149 1.42638,-0.22084 2.15242,-0.2173 0.64948,0.0194 1.30449,0.14205 1.94527,0.0389 0.67157,-0.0383 1.34373,-0.01 2.02044,0.11005 0.72173,0.0245 1.44293,0.0143 2.16514,0.19664 0.67366,0.087 1.34678,0.21934 2.02036,0.24225 0.75618,0.087 1.51365,0.23479 2.26505,0.41118 0.66544,0.20823 1.32956,0.42926 1.99913,0.60257 0.6885,0.21072 1.37685,0.4301 2.07053,0.59417 0.71118,0.20268 1.42434,0.39232 2.11958,0.69849 0.61042,0.27998 1.23649,0.45763 1.85115,0.71585 0.70841,0.26956 1.42123,0.51498 2.12724,0.79674 0.78131,0.32861 1.56387,0.6513 2.34441,0.9836 0.65276,0.27703 1.30739,0.55702 1.97983,0.71446 0.61375,0.20647 1.22227,0.43876 1.83739,0.63378 0.64194,0.21982 1.29363,0.36107 1.94036,0.54504 0.63521,0.1912 1.27908,0.30458 1.91169,0.52083 0.71203,0.15808 1.42152,0.34658 2.13069,0.53415 0.59767,0.15361 1.197,0.27477 1.79222,0.44968 0.67708,0.1582 1.3472,0.36209 2.02493,0.51061 0.75947,0.18395 1.52166,0.33888 2.28373,0.48762 0.68023,0.15286 1.36059,0.28481 2.03481,0.49867 0.79743,0.15642 1.59362,0.33109 2.39203,0.47254 0.92569,0.1683 1.84028,0.46841 2.76819,0.61069 0.9296,0.17422 1.85489,0.42237 2.78857,0.52761 0.86331,0.14938 1.72787,0.2281 2.59235,0.30947 0.77375,0.10706 1.54611,0.1877 2.3202,0.26744 0.81664,0.0526 1.6309,0.12174 2.44767,0.2464 0.84663,0.0689 1.69349,0.21035 2.53954,0.22933 0.74659,-0.0214 1.49234,-0.0844 2.24588,0.0483 0.66945,0.0846 1.33817,0.0804 2.00794,0.19209 0.74254,0.0133 1.48294,-0.0137 2.22894,0.0815 0.75601,-5.3e-4 1.51025,-0.0211 2.27001,0.0527 0.76174,-0.025 1.52048,-0.0892 2.28798,-0.0367 0.86987,-0.006 1.71056,-0.21632 2.5632,-0.35306 0.92273,-0.16305 1.84419,-0.3333 2.76836,-0.48812 1.11517,-0.19054 2.22982,-0.38404 3.34397,-0.58049 1.23213,-0.2132 2.46323,-0.43231 3.69503,-0.64748 1.25778,-0.21873 2.51534,-0.44047 3.76476,-0.70444 1.18989,-0.26495 2.37386,-0.5612 3.53189,-0.96076 1.23895,-0.39361 2.51777,-0.61071 3.74991,-1.03274 1.3077,-0.4637 2.58414,-1.03034 3.87521,-1.54843 1.25778,-0.5247 2.50565,-1.06966 3.71563,-1.73016 1.08329,-0.54464 2.16142,-1.10166 3.23117,-1.68157 0.91249,-0.48787 1.78059,-1.07467 2.61845,-1.72368 0.76048,-0.58127 1.52775,-1.14923 2.28939,-1.72819 0.66934,-0.49766 1.34027,-0.99035 1.99112,-1.52303 0.68136,-0.52498 1.31544,-1.12787 1.9624,-1.71228 0.6447,-0.5871 1.29523,-1.16533 1.96046,-1.71777 0.59329,-0.4957 1.21977,-0.93857 1.76736,-1.50975 0.25594,-0.24336 0.5125,-0.47798 0.77514,-0.70996 0.0922,-0.0815 0.3578,-0.34323 0.27159,-0.25251 -1.87597,1.97395 -8.85406,9.21358 0.53406,-0.53595 0.54811,-0.52266 1.1687,-0.91914 1.70612,-1.45989 0.56652,-0.49598 1.16293,-0.93515 1.73131,-1.42828 0.17574,-0.15322 0.35701,-0.29716 0.53011,-0.45478 0.0774,-0.0705 0.29844,-0.29931 0.22511,-0.22259 -7.95901,8.32707 -2.00476,2.04063 0.72817,-0.71137 -1.26144,1.31432 -5.08828,5.19324 -3.78432,3.94295 1.8839,-1.80636 3.54049,-3.9765 5.58918,-5.51523 0.54202,-0.42743 1.0868,-0.84884 1.64327,-1.24824 0.48613,-0.39893 0.96835,-0.80343 1.47796,-1.15726 0.54014,-0.40291 1.1155,-0.74023 1.65048,-1.15485 0.6848,-0.45761 1.35548,-0.94608 2.05316,-1.37593 0.76865,-0.43564 1.56039,-0.81444 2.3197,-1.27364 0.82412,-0.44821 1.62739,-0.95096 2.47683,-1.33489 0.80694,-0.36348 1.61423,-0.72089 2.44298,-1.01749 0.48562,-0.10522 0.61419,-0.13551 0.5981,-0.11054 -6.11196,9.54799 -1.52871,4.25401 -3.86152,4.96009 -0.60764,0.21903 -1.17305,0.55491 -1.78588,0.75197 -0.62959,0.19012 -1.23282,0.4546 -1.84186,0.71264 -0.71254,0.16778 -1.43696,0.28231 -2.13724,0.5061 -0.7214,0.23543 -1.41458,0.57194 -2.1516,0.7443 -0.7541,0.13268 -1.50824,0.26514 -2.26249,0.39691 -0.83742,0.14563 -1.67503,0.29027 -2.51088,0.44477 -0.81004,0.14188 -1.62028,0.28265 -2.43034,0.42447 -0.95604,0.16756 -1.91104,0.34103 -2.86828,0.50169 -0.99142,0.17075 -1.9847,0.33737 -2.98853,0.42654 -0.81042,0.0476 -1.62349,0.007 -2.43532,0.0234 -0.76326,0.0743 -1.53275,0.10392 -2.30735,-0.0242 -0.78484,-0.10847 -1.57537,-0.12761 -2.34954,-0.41312 -0.72477,-0.21319 -1.44371,-0.45994 -2.15639,-0.74916 -0.65945,-0.29218 -1.3013,-0.66332 -1.92798,-1.06589 -0.65926,-0.37459 -1.32986,-0.73687 -1.93542,-1.25192 -0.58059,-0.49764 -1.18776,-0.94061 -1.77549,-1.4239 -0.62347,-0.56883 -1.18948,-1.22564 -1.83715,-1.74994 -0.49088,-0.47845 -0.97287,-0.97122 -1.48602,-1.4104 -0.45393,-0.38907 -0.89749,-0.79807 -1.34537,-1.19836 -0.45394,-0.38908 -0.89754,-0.79809 -1.34539,-1.19848 -0.45391,-0.38923 -0.89744,-0.79845 -1.34497,-1.19953 -0.45242,-0.3888 -0.89388,-0.7984 -1.34193,-1.19537 -0.44872,-0.37846 -0.88764,-0.77684 -1.35684,-1.11297 -0.53313,-0.35825 -1.08629,-0.65943 -1.60996,-1.04024 -0.58943,-0.44913 -1.20604,-0.83213 -1.81946,-1.21983 -0.56748,-0.35423 -1.15459,-0.62232 -1.74057,-0.91287 -0.6467,-0.33021 -1.30864,-0.60256 -1.95297,-0.94313 -0.68985,-0.32668 -1.37688,-0.66359 -2.07598,-0.9508 -0.69792,-0.29765 -1.39164,-0.61771 -2.09803,-0.87338 -0.82057,-0.27641 -1.62394,-0.6468 -2.44271,-0.93514 -0.79168,-0.28679 -1.58919,-0.53267 -2.39227,-0.73633 -0.77488,-0.24082 -1.55346,-0.42261 -2.33684,-0.57685 -0.67704,-0.13036 -1.35543,-0.2404 -2.03106,-0.3877 -0.62041,-0.15747 -1.2499,-0.21613 -1.87362,-0.3132 -0.76834,-0.0553 -1.52901,-0.23832 -2.29673,-0.32824 -0.65656,-0.0836 -1.3126,-0.0792 -1.96916,-0.20216 -0.64959,-0.0166 -1.29731,-0.0148 -1.94904,-0.13103 -0.74022,-0.0107 -1.4781,0.0195 -2.22156,-0.0541 -0.78895,0.0265 -1.57499,0.0951 -2.37064,0.0262 -0.8935,-0.0221 -1.77029,0.12222 -2.66449,0.0965 -0.83308,-0.009 -1.64854,0.0717 -2.46767,0.19062 -0.81644,0.0606 -1.63683,0.0526 -2.45921,0.0381 -0.80362,0.0652 -1.59861,0.21415 -2.41274,0.18006 -0.76384,-0.0187 -1.52451,-0.0476 -2.264,0.15161 -0.88586,0.15418 -1.77226,0.30539 -2.65778,0.46154 -0.94076,0.16892 -1.88266,0.33135 -2.82378,0.49818 -0.89351,0.16161 -1.78989,0.3085 -2.67762,0.50118 -0.79838,0.17601 -1.59373,0.37291 -2.3529,0.70244 -0.71201,0.28476 -1.44158,0.45858 -2.19679,0.55789 -0.72765,0.13643 -1.45611,0.27523 -2.16655,0.49293 -0.72121,0.23506 -1.41267,0.56872 -2.14243,0.76931 -0.7219,0.16568 -1.43894,0.35845 -2.12563,0.65897 -0.71316,0.29454 -1.44642,0.48093 -2.1889,0.66481 -0.79982,0.25556 -1.5709,0.60504 -2.37303,0.85068 -0.79779,0.21754 -1.57167,0.51244 -2.33899,0.83744 -0.75847,0.23498 -1.52903,0.42985 -2.24224,0.81638 -0.74927,0.32773 -1.54602,0.50287 -2.27305,0.9013 -0.78334,0.36399 -1.60489,0.61132 -2.37596,1.01295 -0.67979,0.29148 -1.33775,0.62594 -1.98332,1.00745 -0.55786,0.30472 -1.10672,0.62119 -1.68468,0.87359 -0.60613,0.35158 -1.24985,0.59113 -1.85069,0.9558 -0.58896,0.36389 -1.18946,0.70391 -1.7818,1.05876 -0.65733,0.35957 -1.28648,0.78602 -1.93407,1.16891 -0.56892,0.31802 -1.09247,0.72574 -1.6499,1.06945 -0.62549,0.47738 -1.26982,0.91791 -1.87165,1.43898 -0.54211,0.45152 -1.12864,0.8242 -1.65479,1.30599 -0.53897,0.46867 -1.16161,0.77891 -1.67027,1.29983 12.70498,-13.25581 -9.37502,9.81009 3.20285,-3.38167 0.19726,-0.2069 -0.80101,0.80861 -0.56724,0.65475 -0.0883,0.0992 -0.17657,0.19855 -0.26485,0.29783 -0.51572,0.49362 -0.93417,1.11263 -1.41704,1.64872 -0.39567,0.45643 -0.87147,1.04096 -1.05109,1.69098 -0.28456,0.7124 -0.31604,1.56197 -0.22624,2.37689 0.0546,0.79739 -0.0172,1.56219 -0.002,2.34874 0.0367,0.85859 -0.05,1.70117 0.1,2.56047 0.0656,0.9624 0.021,1.90351 0.0209,2.85828 0.005,0.86478 -0.027,1.7212 -0.0164,2.58588 -0.0774,0.85423 -0.0547,1.70695 -0.0897,2.57109 0.0586,0.86515 -0.0212,1.69453 -0.014,2.55009 0.008,0.98464 -0.1127,1.93742 -0.15306,2.91396 -0.0869,0.97778 -0.0489,1.98073 -0.0199,2.97321 -0.0187,1.20704 -0.0862,2.40665 -0.11445,3.61241 -0.0679,1.02228 -0.003,2.05267 -0.10152,3.06996 -0.12227,1.34094 -0.0883,2.72007 -0.1419,4.07484 -0.0829,1.58774 -0.008,3.19255 -0.0686,4.78386 -0.0391,1.49942 -0.15943,2.98223 -0.0977,4.49422 -0.0269,1.4766 2.1e-4,2.95978 -0.0667,4.43082 -0.12551,1.62708 -0.0562,3.28344 -0.16627,4.91381 -0.052,1.82961 -0.0889,3.66108 -0.15895,5.48772 -0.0381,1.64019 -0.14684,3.26861 -0.17805,4.90966 -0.0174,1.49064 -0.0711,2.97382 -0.16402,4.45241 -0.12465,1.48179 -0.10822,2.98807 -0.23984,4.46873 -0.0693,1.84965 -0.22362,3.68538 -0.29113,5.53588 -0.10111,2.20801 -0.35733,4.37863 -0.55982,6.56433 -0.18073,2.09706 -0.48958,4.15998 -0.66377,6.25908 -0.15316,1.88444 -0.35023,3.75841 -0.4657,5.65125 -0.18133,2.0254 -0.47147,4.02395 -0.67138,6.04514 -0.28846,2.57624 -0.71875,5.1096 -1.06982,7.66715 -0.42765,2.47753 -0.76209,4.981 -1.08415,7.49279 -0.25519,2.04965 -0.56497,4.08223 -0.81917,6.13221 -0.23607,1.87327 -0.49397,3.74398 -0.90705,5.55414 -0.44335,2.0613 -0.78486,4.15682 -1.13262,6.25478 -0.33487,2.00056 -0.60618,4.01971 -0.87634,6.04113 -0.25619,1.65902 -0.61679,3.272 -0.99386,4.88268 -0.29193,1.61583 -0.61133,3.22149 -0.93879,4.8231 -0.38568,1.80487 -0.65247,3.65803 -1.1146,5.42851 -0.47622,2.02793 -1.00101,4.03172 -1.51693,6.04068 -0.39769,2.00638 -0.7838,4.01749 -1.19683,6.01764 -0.3819,1.74269 -0.87689,3.4348 -1.34395,5.13654 -0.50544,1.66383 -1.00345,3.33663 -1.40579,5.05294 -0.48193,1.95646 -0.97574,3.90751 -1.47972,5.85316 -0.52459,1.84932 -1.07578,3.68389 -1.66345,5.49749 -0.41481,1.27427 -0.71099,2.61592 -1.18525,3.85375 -0.28745,0.84982 -0.65881,1.65519 -0.99459,2.47105 -0.39548,1.1291 -1.03261,2.06885 -1.40643,3.21555 -0.67087,1.79641 -1.43193,3.52409 -2.15533,5.28347 -0.75605,1.72982 -1.60452,3.39723 -2.22481,5.22383 0,0 -4.52694,3.57176 -4.52694,3.57176 z"
       inkscape:connector-curvature="0" />
    <path
       style="fill:#000000;fill-opacity:1;fill-rule:nonzero;stroke:#000000;stroke-opacity:1"
       d="m 317.40817,714.75633 c -8.0772,-0.48967 -12.97478,-1.08361 -18.21429,-2.20885 -11.29536,-2.42582 -17.97955,-4.20972 -21.58323,-5.7602 -5.45092,-2.34527 -11.21624,-4.12024 -15.20248,-4.68038 -3.37352,-0.47405 -8.04441,-0.52911 -10.26786,-0.12104 -0.83482,0.15322 -1.59822,0.27843 -1.69643,0.27824 -0.11616,-1.8e-4 -0.17857,-2.57477 -0.17857,-7.36583 0,-9.12285 -0.28516,-8.2087 3.46513,-11.10848 3.76285,-2.90949 9.92045,-6.42658 14.98067,-8.55664 4.32254,-1.81953 14.8516,-5.38442 17.8042,-6.02807 0.88393,-0.19269 2.33036,-0.57935 3.21428,-0.85923 2.46636,-0.78095 9.51612,-1.97806 12.76786,-2.16809 5.63328,-0.32921 12.28465,-0.47825 14.67688,-0.32886 3.14655,0.19648 7.82048,0.92622 10.76955,1.68144 4.7924,1.22726 11.31058,4.08921 15.24569,6.69393 1.97223,1.30546 6.32057,5.01918 10.50302,8.97013 3.01485,2.84798 5.48627,4.46329 8.28552,5.41538 3.39316,1.15409 7.6513,0.93261 17.68078,-0.91964 0.57685,-0.10653 0.5324,-0.0427 -0.91144,1.3093 -0.83482,0.7817 -2.36161,2.12997 -3.39286,2.99614 -1.03125,0.86618 -2.39874,2.06461 -3.03888,2.66318 -2.60536,2.4362 -6.483,5.68153 -9.35909,7.83295 -2.52101,1.88581 -3.62003,2.57037 -6.35203,3.95652 -4.33435,2.19916 -7.53065,3.46241 -11.78571,4.65799 -3.51685,0.98815 -4.14267,1.11763 -13.48214,2.78938 -4.7682,0.85349 -5.42621,0.93033 -8.30357,0.96962 -1.71875,0.0235 -4.25,-0.0255 -5.625,-0.10889 z"
       id="path5280"
       inkscape:connector-curvature="0" />
    <path
       style="fill:#004600;fill-opacity:1;fill-rule:nonzero;stroke:#000000;stroke-width:0.17857143000000000;stroke-linecap:round;stroke-linejoin:round;stroke-miterlimit:4;stroke-opacity:1;stroke-dasharray:none"
       d="m 239.28317,809.69277 c 0,-0.1379 0.4804,-3.57317 1.06756,-7.63393 1.15909,-8.01619 1.62184,-11.83214 2.05387,-16.93677 0.15377,-1.81696 0.47849,-5.15179 0.7216,-7.41071 0.65574,-6.09316 0.75936,-7.51075 1.14865,-15.71429 0.49478,-10.42649 0.68451,-16.29096 0.99367,-30.71429 0.14737,-6.875 0.34998,-15.07142 0.45026,-18.21428 0.10028,-3.14286 0.18563,-9.39503 0.18966,-13.89372 0.005,-5.8185 0.0684,-8.35564 0.2187,-8.78991 0.11624,-0.33577 0.57235,-1.10622 1.01358,-1.71211 1.04517,-1.43525 6.6167,-7.26709 7.76745,-8.13036 0.49107,-0.36839 1.72389,-1.29659 2.7396,-2.06265 2.06499,-1.55745 5.62408,-3.73694 8.64758,-5.29552 1.10312,-0.56865 2.16639,-1.12877 2.36282,-1.24471 1.41935,-0.83778 6.44414,-2.7849 11.78571,-4.56699 7.38104,-2.46252 7.7827,-2.58771 9.51839,-2.96653 0.90588,-0.19771 2.22858,-0.55398 2.93933,-0.7917 0.71076,-0.23773 3.38157,-0.79493 5.93514,-1.23823 5.55887,-0.96501 9.80582,-1.26213 17.94643,-1.25554 5.46202,0.004 6.81368,0.1201 11.51785,0.98571 4.72727,0.86986 8.96928,2.38236 14.82143,5.2846 3.98841,1.97796 7.98867,5.08771 14.19643,11.03612 2.20831,2.11606 2.83155,2.61452 4.77973,3.82282 2.89412,1.79499 4.87038,2.33012 8.61931,2.33394 1.92792,0.002 3.28879,-0.11114 5.29109,-0.43974 6.09734,-1.00064 10.67161,-1.8896 11.80403,-2.29401 0.66125,-0.23614 1.50847,-0.485 1.88272,-0.55303 0.37425,-0.068 1.57783,-0.51599 2.67463,-0.99548 1.09679,-0.4795 2.01885,-0.84713 2.04901,-0.81697 0.0302,0.0302 -0.48329,0.92927 -1.141,1.998 -0.65771,1.06873 -1.30523,2.12395 -1.43894,2.34494 -0.13957,0.23068 -0.41889,0.40178 -0.65588,0.40178 -1.08055,0 -5.89507,2.35988 -8.83036,4.32827 -2.34297,1.57119 -5.803,4.2782 -7.52704,5.88891 -0.92902,0.86795 -1.78118,1.54276 -1.89369,1.49959 -0.11252,-0.0432 -1.03991,0.76583 -2.06088,1.79779 -1.02097,1.03196 -2.53934,2.44712 -3.37416,3.1448 -0.83482,0.69768 -2.16708,1.8527 -2.96059,2.56671 -0.7935,0.714 -2.81311,2.32603 -4.48801,3.58228 -2.45848,1.84396 -3.66009,2.59975 -6.23584,3.92223 -4.19971,2.15627 -7.84343,3.62353 -11.6727,4.70039 -4.20343,1.18209 -4.39685,1.22303 -12.67857,2.68366 l -7.23215,1.27552 -4.55357,-0.0954 c -10.95084,-0.22946 -16.65423,-0.94974 -27.58928,-3.48427 -9.14475,-2.11956 -12.59399,-3.10753 -16.33929,-4.68006 -5.10603,-2.14387 -10.90208,-3.98161 -13.83928,-4.38801 -4.191,-0.57987 -9.43144,-0.78119 -9.83482,-0.37781 -0.0683,0.0683 -0.15327,1.27182 -0.1888,2.67446 -0.0355,1.40264 -0.14763,5.24221 -0.24911,8.53239 -0.10148,3.29018 -0.26438,10.08036 -0.362,15.08929 -0.37426,19.20324 -0.96591,31.24478 -2.04432,41.60714 -0.23509,2.25893 -0.51681,5.19196 -0.62604,6.51786 -0.32515,3.94672 -1.04095,9.95392 -1.79799,15.08928 -0.39091,2.65179 -0.94737,6.58929 -1.23657,8.75 -0.2892,2.16072 -0.57178,4.18974 -0.62796,4.50893 l -0.10215,0.58036 -1.77762,0 c -1.4071,0 -1.77762,-0.0523 -1.77762,-0.25073 z M 375.17602,692.88993 c 0.43376,-0.44197 0.74847,-0.80357 0.69936,-0.80357 -0.0491,0 -0.44417,0.3616 -0.87793,0.80357 -0.43375,0.44196 -0.74847,0.80357 -0.69936,0.80357 0.0491,0 0.44418,-0.36161 0.87793,-0.80357 z m 5.68081,-5.43527 c 0.0446,-0.13393 -0.0223,-0.20089 -0.15625,-0.15625 -0.12891,0.043 -0.26953,0.18359 -0.3125,0.3125 -0.0446,0.13393 0.0223,0.20089 0.15625,0.15625 0.1289,-0.043 0.26953,-0.1836 0.3125,-0.3125 z"
       id="path5294"
       inkscape:connector-curvature="0" />
  </g>
</svg>
