<?xml version="1.0" encoding="UTF-8" standalone="no"?>
<svg
   xmlns:sketch="http://www.bohemiancoding.com/sketch/ns"
   xmlns:dc="http://purl.org/dc/elements/1.1/"
   xmlns:cc="http://creativecommons.org/ns#"
   xmlns:rdf="http://www.w3.org/1999/02/22-rdf-syntax-ns#"
   xmlns:svg="http://www.w3.org/2000/svg"
   xmlns="http://www.w3.org/2000/svg"
   xmlns:sodipodi="http://sodipodi.sourceforge.net/DTD/sodipodi-0.dtd"
   xmlns:inkscape="http://www.inkscape.org/namespaces/inkscape"
   width="30px"
   height="30px"
   viewBox="0 0 30 30"
   version="1.1">
   <metadata>
     <rdf:RDF>
       <cc:Work rdf:about="">
         <dc:format>image/svg+xml</dc:format>
         <dc:type rdf:resource="http://purl.org/dc/dcmitype/StillImage" />
         <dc:title></dc:title>
       </cc:Work>
     </rdf:RDF>
   </metadata>
   <defs>
     <symbol id="icon_sources" stroke="none" fill="currentColor">
      <g transform="matrix(0,-1.1623647,1.1402528,0,-10.46028,32.467869)">
        <g transform="translate(6,12)">
          <path
             inkscape:connector-curvature="0"
             d="m 9,-0.54761905 c -3.52,0 -6.64,1.69999995 -8.56,4.37142855 l 1.68,1.7 C 3.64,3.3380952 6.2,1.8809524 9,1.8809524 c 2.88,0 5.44,1.4571428 6.96,3.7238095 l 1.68,-1.7 C 15.64,1.1523809 12.52,-0.54761905 9,-0.54761905 l 0,0 z M 9,4.0666667 c -2.24,0 -4.16,1.2142857 -5.28,3.0761904 L 5.48,8.9238095 C 6.04,7.4666667 7.4,6.4952381 9,6.4952381 c 1.6,0 2.96,1.0523809 3.52,2.4285714 L 14.28,7.1428571 C 13.24,5.2809524 11.24,4.0666667 9,4.0666667 l 0,0 z m 0,4.6952381 c -0.88,0 -1.52,0.7285714 -1.52,1.5380952 0,0.890476 0.72,1.538095 1.52,1.538095 0.88,0 1.52,-0.728571 1.52,-1.538095 C 10.52,9.4095238 9.88,8.7619048 9,8.7619048 l 0,0 z" />
        </g>
      </g>
      <g transform="matrix(0,1,-1,0,37.857103,0.08711866)">
        <g transform="translate(6,12)">
          <path
             d="m 8.8804832,-1.5445676 c -4.0915236,0 -7.7181014,1.93842961 -9.9498415,4.9845335 L 0.88341431,5.3783956 C 2.6502086,2.8861288 5.6258622,1.2246177 8.8804832,1.2246177 c 3.3476098,0 6.3232628,1.6615111 8.0900568,4.2460841 L 18.923313,3.5322721 C 16.598584,0.39386201 12.972006,-1.5445676 8.8804832,-1.5445676 l 0,0 z m 0,5.2614521 c -2.6036968,0 -4.835437,1.3845926 -6.1372854,3.5076346 L 4.7889596,9.255255 C 5.4398838,7.5937439 7.0206998,6.4860697 8.8804832,6.4860697 c 1.8597838,0 3.4405988,1.1999802 4.0915228,2.7691853 L 15.017768,7.2245191 C 13.808908,5.1014771 11.484179,3.7168845 8.8804832,3.7168845 l 0,0 z m 0,5.3537582 c -1.0228809,0 -1.7667943,0.8307555 -1.7667943,1.7538173 0,1.015368 0.8369026,1.753817 1.7667943,1.753817 1.0228809,0 1.7667938,-0.830755 1.7667938,-1.753817 0,-1.015368 -0.7439129,-1.7538173 -1.7667938,-1.7538173 l 0,0 z"
             inkscape:connector-curvature="0" />
        </g>
      </g>
    </symbol>
  </defs>

  <use href="#icon_sources" style="color: white;"/>
</svg>
